<mxfile host="Electron" modified="2023-08-11T05:28:06.852Z" agent="Mozilla/5.0 (Windows NT 10.0; Win64; x64) AppleWebKit/537.36 (KHTML, like Gecko) draw.io/21.6.5 Chrome/114.0.5735.243 Electron/25.3.1 Safari/537.36" etag="X0I97wtyGTdBLvcMeQId" version="21.6.5" type="device">
  <diagram name="Page-1" id="gP0rg7vt0WH-xnEx5TeD">
    <mxGraphModel dx="1372" dy="819" grid="1" gridSize="10" guides="1" tooltips="1" connect="1" arrows="1" fold="1" page="1" pageScale="1" pageWidth="1200" pageHeight="1600" math="0" shadow="0">
      <root>
        <mxCell id="0" />
        <mxCell id="1" parent="0" />
        <mxCell id="COzhcOKA5EM579brpc2f-38" style="edgeStyle=orthogonalEdgeStyle;rounded=0;orthogonalLoop=1;jettySize=auto;html=1;" edge="1" parent="1" source="COzhcOKA5EM579brpc2f-37">
          <mxGeometry relative="1" as="geometry">
            <mxPoint x="280" y="80" as="targetPoint" />
          </mxGeometry>
        </mxCell>
        <mxCell id="COzhcOKA5EM579brpc2f-37" value="client connect" style="rounded=0;whiteSpace=wrap;html=1;" vertex="1" parent="1">
          <mxGeometry x="40" y="40" width="160" height="80" as="geometry" />
        </mxCell>
        <mxCell id="COzhcOKA5EM579brpc2f-41" style="edgeStyle=orthogonalEdgeStyle;rounded=0;orthogonalLoop=1;jettySize=auto;html=1;entryX=0;entryY=0.5;entryDx=0;entryDy=0;" edge="1" parent="1" source="COzhcOKA5EM579brpc2f-39" target="COzhcOKA5EM579brpc2f-40">
          <mxGeometry relative="1" as="geometry">
            <mxPoint x="510" y="80" as="targetPoint" />
          </mxGeometry>
        </mxCell>
        <mxCell id="COzhcOKA5EM579brpc2f-39" value="channel ?" style="rounded=0;whiteSpace=wrap;html=1;" vertex="1" parent="1">
          <mxGeometry x="280" y="40" width="160" height="80" as="geometry" />
        </mxCell>
        <mxCell id="COzhcOKA5EM579brpc2f-49" value="" style="edgeStyle=orthogonalEdgeStyle;rounded=0;orthogonalLoop=1;jettySize=auto;html=1;" edge="1" parent="1" source="COzhcOKA5EM579brpc2f-40">
          <mxGeometry relative="1" as="geometry">
            <mxPoint x="760" y="80" as="targetPoint" />
          </mxGeometry>
        </mxCell>
        <mxCell id="COzhcOKA5EM579brpc2f-40" value="methode ?" style="rounded=0;whiteSpace=wrap;html=1;" vertex="1" parent="1">
          <mxGeometry x="520" y="40" width="160" height="80" as="geometry" />
        </mxCell>
        <mxCell id="COzhcOKA5EM579brpc2f-43" value="channel" style="swimlane;whiteSpace=wrap;html=1;startSize=40;" vertex="1" parent="1">
          <mxGeometry x="40" y="160" width="200" height="280" as="geometry" />
        </mxCell>
        <mxCell id="COzhcOKA5EM579brpc2f-44" value="methods" style="swimlane;whiteSpace=wrap;html=1;startSize=40;" vertex="1" parent="COzhcOKA5EM579brpc2f-43">
          <mxGeometry x="20" y="120" width="160" height="120" as="geometry" />
        </mxCell>
        <mxCell id="COzhcOKA5EM579brpc2f-47" value="GET&lt;br&gt;POST&lt;br&gt;PUT&lt;br&gt;DELET&lt;br&gt;ETC..." style="text;strokeColor=none;fillColor=none;align=left;verticalAlign=middle;spacingLeft=4;spacingRight=4;overflow=hidden;points=[[0,0.5],[1,0.5]];portConstraint=eastwest;rotatable=0;whiteSpace=wrap;html=1;" vertex="1" parent="COzhcOKA5EM579brpc2f-44">
          <mxGeometry x="50" y="40" width="50" height="80" as="geometry" />
        </mxCell>
        <mxCell id="COzhcOKA5EM579brpc2f-45" value="name" style="rounded=0;whiteSpace=wrap;html=1;" vertex="1" parent="COzhcOKA5EM579brpc2f-43">
          <mxGeometry x="20" y="60" width="160" height="40" as="geometry" />
        </mxCell>
        <mxCell id="COzhcOKA5EM579brpc2f-52" value="" style="edgeStyle=orthogonalEdgeStyle;rounded=0;orthogonalLoop=1;jettySize=auto;html=1;" edge="1" parent="1" source="COzhcOKA5EM579brpc2f-50" target="COzhcOKA5EM579brpc2f-51">
          <mxGeometry relative="1" as="geometry" />
        </mxCell>
        <mxCell id="COzhcOKA5EM579brpc2f-55" value="Yes" style="edgeLabel;html=1;align=center;verticalAlign=middle;resizable=0;points=[];" vertex="1" connectable="0" parent="COzhcOKA5EM579brpc2f-52">
          <mxGeometry x="-0.1" relative="1" as="geometry">
            <mxPoint as="offset" />
          </mxGeometry>
        </mxCell>
        <mxCell id="COzhcOKA5EM579brpc2f-54" value="" style="edgeStyle=orthogonalEdgeStyle;rounded=0;orthogonalLoop=1;jettySize=auto;html=1;" edge="1" parent="1" source="COzhcOKA5EM579brpc2f-50" target="COzhcOKA5EM579brpc2f-53">
          <mxGeometry relative="1" as="geometry" />
        </mxCell>
        <mxCell id="COzhcOKA5EM579brpc2f-56" value="No" style="edgeLabel;html=1;align=center;verticalAlign=middle;resizable=0;points=[];" vertex="1" connectable="0" parent="COzhcOKA5EM579brpc2f-54">
          <mxGeometry x="-0.3083" y="2" relative="1" as="geometry">
            <mxPoint as="offset" />
          </mxGeometry>
        </mxCell>
        <mxCell id="COzhcOKA5EM579brpc2f-50" value="method has body" style="rhombus;whiteSpace=wrap;html=1;" vertex="1" parent="1">
          <mxGeometry x="760" y="40" width="80" height="80" as="geometry" />
        </mxCell>
        <mxCell id="COzhcOKA5EM579brpc2f-51" value="parse body" style="whiteSpace=wrap;html=1;" vertex="1" parent="1">
          <mxGeometry x="920" y="50" width="120" height="60" as="geometry" />
        </mxCell>
        <mxCell id="COzhcOKA5EM579brpc2f-53" value="call channel function" style="whiteSpace=wrap;html=1;" vertex="1" parent="1">
          <mxGeometry x="740" y="170" width="120" height="60" as="geometry" />
        </mxCell>
      </root>
    </mxGraphModel>
  </diagram>
</mxfile>
